<svg width="1172" height="500" xmlns="http://www.w3.org/2000/svg" xmlns:xlink="http://www.w3.org/1999/xlink" overflow="hidden"><defs><clipPath id="clip0"><rect x="-17" y="144" width="1172" height="500"/></clipPath><clipPath id="clip1"><rect x="438" y="145" width="272" height="260"/></clipPath><clipPath id="clip2"><rect x="438" y="145" width="272" height="260"/></clipPath></defs><g clip-path="url(#clip0)" transform="translate(17 -144)"><g clip-path="url(#clip1)"><g clip-path="url(#clip2)"><g><path d="M462.291 26.4836 295.828 26.4836 295.828 58.5532 361.962 58.5532 361.962 230.831 396.157 230.831 396.157 58.5532 462.291 58.5532Z" fill="#003C30" transform="matrix(1 0 0 1.00151 438.63 145)"/><path d="M572.923 101.835C567.906 91.71 560.225 84.4283 549.861 79.9794 539.507 75.5306 527.507 73.3062 513.891 73.3062 495.817 73.3062 481.463 77.2363 470.819 85.0866 460.176 92.937 452.964 103.351 449.174 116.308L480.395 126.104C482.949 118.253 487.438 112.717 493.872 109.495 500.305 106.283 506.979 104.668 513.881 104.668 525.323 104.668 533.462 107.171 538.29 112.189 542.3 116.358 544.604 122.473 545.213 130.503 539.038 131.42 532.994 132.288 527.148 133.116 517.452 134.493 508.465 135.979 500.186 137.585 491.907 139.191 484.695 140.996 478.54 142.981 470.4 145.725 463.787 149.246 458.67 153.555 453.563 157.864 449.772 162.971 447.318 168.877 444.855 174.792 443.628 181.435 443.628 188.817 443.628 197.235 445.593 204.946 449.513 211.949 453.433 218.951 459.238 224.557 466.899 228.766 474.56 232.976 483.927 235.081 494.999 235.081 508.814 235.081 520.325 232.507 529.552 227.35 536.644 223.38 543.058 217.664 548.784 210.193L548.784 230.831 578.729 230.831 578.729 136.747C578.729 130.124 578.44 123.999 577.881 118.373 577.322 112.737 575.667 107.231 572.923 101.835ZM541.422 182.443C540.285 185.944 538.091 189.674 534.819 193.654 531.557 197.624 527.178 200.986 521.692 203.729 516.206 206.472 509.582 207.849 501.822 207.849 496.425 207.849 491.907 207.001 488.266 205.295 484.625 203.59 481.852 201.295 479.966 198.412 478.071 195.53 477.124 192.188 477.124 188.408 477.124 185.096 477.852 182.213 479.328 179.749 480.794 177.295 482.899 175.111 485.642 173.226 488.385 171.33 491.747 169.675 495.717 168.258 499.787 166.931 504.465 165.724 509.762 164.637 515.058 163.55 521.403 162.393 528.774 161.156 533.492 160.368 538.829 159.5 544.754 158.562 544.694 161.156 544.594 164.118 544.455 167.47 544.235 173.096 543.218 178.093 541.422 182.443Z" fill="#003C30" transform="matrix(1 0 0 1.00151 438.63 145)"/><path d="M1069.24 73.7351C1059.02 73.7351 1049.75 76.0094 1041.43 80.548 1033.59 84.8273 1027.29 90.7026 1022.52 98.1339 1018.73 91.0617 1013.43 85.3659 1006.6 81.0468 998.885 76.179 989.309 73.7351 977.858 73.7351 967.454 73.7351 958.058 76.0294 949.689 80.6179 943.245 84.149 937.838 88.6876 933.439 94.2038L933.439 77.5655 903.215 77.5655 903.215 230.831 937.699 230.831 937.699 136.458C937.699 126.902 940.322 119.141 945.579 113.186 950.826 107.221 957.808 104.249 966.506 104.249 975.494 104.249 982.586 107.231 987.793 113.186 992.99 119.151 995.594 127.47 995.594 138.164L995.594 230.831 1029.65 230.831 1029.65 136.458C1029.65 129.745 1030.92 123.949 1033.48 119.071 1036.03 114.204 1039.48 110.513 1043.84 107.999 1048.19 105.495 1053.11 104.239 1058.6 104.239 1067.48 104.239 1074.54 107.201 1079.74 113.106 1084.94 119.022 1087.55 127.231 1087.55 137.725L1087.55 230.821 1121.76 230.821 1121.76 129.076C1121.76 112.518 1117.24 99.1614 1108.2 88.9869 1099.16 78.8223 1086.18 73.7351 1069.24 73.7351Z" fill="#003C30" transform="matrix(1 0 0 1.00151 438.63 145)"/><path d="M1272.99 118.373C1272.42 112.747 1270.76 107.231 1268.02 101.845 1263 91.72 1255.32 84.4383 1244.96 79.9894 1234.6 75.5406 1222.6 73.3162 1208.99 73.3162 1190.91 73.3162 1176.56 77.2463 1165.92 85.0966 1155.27 92.9469 1148.06 103.361 1144.27 116.318L1175.49 126.114C1178.05 118.263 1182.53 112.727 1188.97 109.505 1195.4 106.293 1202.08 104.678 1208.98 104.678 1220.42 104.678 1228.56 107.181 1233.39 112.199 1237.4 116.368 1239.7 122.483 1240.31 130.513 1234.14 131.43 1228.09 132.298 1222.25 133.126 1212.55 134.503 1203.56 135.989 1195.28 137.595 1187 139.201 1179.79 141.006 1173.64 142.991 1165.5 145.735 1158.88 149.256 1153.77 153.565 1148.66 157.874 1144.87 162.981 1142.42 168.887 1139.95 174.802 1138.72 181.445 1138.72 188.827 1138.72 197.245 1140.69 204.956 1144.61 211.959 1148.53 218.961 1154.34 224.567 1162 228.776 1169.66 232.986 1179.02 235.09 1190.1 235.09 1203.91 235.09 1215.42 232.517 1224.65 227.36 1231.74 223.39 1238.16 217.674 1243.88 210.203L1243.88 230.841 1273.83 230.841 1273.83 136.757C1273.85 130.124 1273.56 123.999 1272.99 118.373ZM1236.52 182.443C1235.38 185.944 1233.19 189.674 1229.92 193.654 1226.65 197.624 1222.28 200.986 1216.79 203.729 1211.3 206.472 1204.68 207.849 1196.92 207.849 1191.52 207.849 1187 207.001 1183.36 205.295 1179.72 203.59 1176.95 201.295 1175.06 198.412 1173.17 195.53 1172.22 192.188 1172.22 188.408 1172.22 185.096 1172.95 182.213 1174.43 179.749 1175.89 177.295 1178 175.111 1180.74 173.226 1183.48 171.33 1186.84 169.675 1190.81 168.258 1194.88 166.931 1199.56 165.724 1204.86 164.637 1210.16 163.55 1216.5 162.393 1223.87 161.156 1228.59 160.368 1233.93 159.5 1239.85 158.562 1239.79 161.156 1239.69 164.118 1239.55 167.47 1239.33 173.096 1238.31 178.093 1236.52 182.443Z" fill="#003C30" transform="matrix(1 0 0 1.00151 438.63 145)"/><path d="M875.305 101.835C870.288 91.71 862.607 84.4283 852.243 79.9794 841.889 75.5306 829.889 73.3062 816.273 73.3062 798.198 73.3062 783.844 77.2363 773.201 85.0866 762.558 92.937 755.346 103.351 751.555 116.308L782.777 126.104C785.331 118.253 789.82 112.717 796.253 109.495 802.687 106.283 809.361 104.668 816.263 104.668 827.705 104.668 835.844 107.171 840.672 112.189 844.682 116.358 846.986 122.473 847.595 130.503 841.42 131.42 835.375 132.288 829.53 133.116 819.834 134.493 810.847 135.979 802.568 137.585 794.288 139.191 787.076 140.996 780.922 142.981 772.782 145.725 766.169 149.246 761.052 153.555 755.944 157.864 752.154 162.971 749.7 168.877 747.236 174.792 746.009 181.435 746.009 188.817 746.009 197.235 747.974 204.946 751.895 211.949 755.815 218.951 761.62 224.557 769.281 228.766 776.942 232.976 786.308 235.081 797.381 235.081 811.196 235.081 822.707 232.507 831.934 227.35 839.026 223.38 845.44 217.664 851.166 210.193L851.166 230.831 881.111 230.831 881.111 136.747C881.111 130.124 880.821 123.999 880.263 118.373 879.704 112.737 878.048 107.231 875.305 101.835ZM843.804 182.443C842.667 185.944 840.473 189.674 837.201 193.654 833.939 197.624 829.56 200.986 824.074 203.729 818.587 206.472 811.964 207.849 804.203 207.849 798.807 207.849 794.288 207.001 790.647 205.295 787.007 203.59 784.234 201.295 782.348 198.412 780.453 195.53 779.505 192.188 779.505 188.408 779.505 185.096 780.234 182.213 781.71 179.749 783.176 177.295 785.281 175.111 788.024 173.226 790.767 171.33 794.129 169.675 798.099 168.258 802.169 166.931 806.847 165.724 812.144 164.637 817.44 163.55 823.784 162.393 831.156 161.156 835.874 160.368 841.211 159.5 847.136 158.562 847.076 161.156 846.976 164.118 846.837 167.47 846.617 173.096 845.6 178.093 843.804 182.443Z" fill="#003C30" transform="matrix(1 0 0 1.00151 438.63 145)"/><path d="M605.771 107.51 685.152 107.51C647.925 141.036 622.25 174.951 605.771 200.757L605.771 230.831 622.589 230.831 731.925 230.831 731.925 205.714 731.925 200.886 641.89 200.886C661.491 173.246 690.778 139.081 731.915 107.52L731.915 107.51 731.915 82.3934 731.915 77.5655 605.771 77.5655 605.771 107.51Z" fill="#003C30" transform="matrix(1 0 0 1.00151 438.63 145)"/><path d="M163.031 31.5708C163.031 46.2939 135.43 131.879 135.43 131.879 135.43 131.879 107.83 46.2939 107.83 31.5708 107.83 16.8478 120.179 0 135.43 0 150.682 0 163.031 16.8577 163.031 31.5708Z" fill="#51BE99" transform="matrix(1 0 0 1.00151 438.63 145)"/><path d="M39.5907 80.6478C53.5856 85.1964 126.463 137.894 126.463 137.894 126.463 137.894 36.5384 137.695 22.5335 133.146 8.52861 128.598-3.6708 111.64 1.0374 97.1364 5.74559 82.6328 25.5858 76.0992 39.5907 80.6478Z" fill="#51BE99" transform="matrix(1 0 0 1.00151 438.63 145)"/><path d="M48.1193 213.215C56.7677 201.305 129.415 148.288 129.415 148.288 129.415 148.288 101.436 233.754 92.7873 245.664 84.139 257.574 64.2289 263.938 51.8999 254.981 39.5608 246.023 39.4611 225.125 48.1193 213.215Z" fill="#51BE99" transform="matrix(1 0 0 1.00151 438.63 145)"/><path d="M176.837 246.073C168.188 234.163 140.208 148.697 140.208 148.697 140.208 148.697 212.846 201.714 221.505 213.624 230.153 225.534 230.063 246.432 217.734 255.39 205.395 264.347 185.485 257.983 176.837 246.073Z" fill="#51BE99" transform="matrix(1 0 0 1.00151 438.63 145)"/><path d="M247.849 133.804C233.854 138.353 143.919 138.553 143.919 138.553 143.919 138.553 216.786 85.8547 230.791 81.3061 244.786 76.7575 264.636 83.3011 269.345 97.8048 274.053 112.308 261.853 129.256 247.849 133.804Z" fill="#51BE99" transform="matrix(1 0 0 1.00151 438.63 145)"/><path d="M199.989 67.2015C199.989 73.278 195.063 78.2039 188.986 78.2039 182.91 78.2039 177.984 73.278 177.984 67.2015 177.984 61.125 182.91 56.1991 188.986 56.1991 195.063 56.1991 199.989 61.125 199.989 67.2015Z" fill="#51BE99" transform="matrix(1 0 0 1.00151 438.63 145)"/><path d="M92.7175 67.6703C92.7175 73.7468 87.7916 78.6727 81.7151 78.6727 75.6386 78.6727 70.7127 73.7468 70.7127 67.6703 70.7127 61.5938 75.6386 56.6679 81.7151 56.6679 87.7916 56.6679 92.7175 61.5938 92.7175 67.6703Z" fill="#51BE99" transform="matrix(1 0 0 1.00151 438.63 145)"/><path d="M72.0094 163.62C72.0094 169.696 67.0835 174.622 61.007 174.622 54.9306 174.622 50.0046 169.696 50.0046 163.62 50.0046 157.543 54.9306 152.617 61.007 152.617 67.0835 152.617 72.0094 157.543 72.0094 163.62Z" fill="#51BE99" transform="matrix(1 0 0 1.00151 438.63 145)"/><path d="M145.745 211.779C145.745 217.855 140.819 222.781 134.742 222.781 128.666 222.781 123.74 217.855 123.74 211.779 123.74 205.702 128.666 200.777 134.742 200.777 140.819 200.777 145.745 205.702 145.745 211.779Z" fill="#51BE99" transform="matrix(1 0 0 1.00151 438.63 145)"/><path d="M220.248 164.438C220.248 170.514 215.322 175.44 209.245 175.44 203.169 175.44 198.243 170.514 198.243 164.438 198.243 158.361 203.169 153.435 209.245 153.435 215.322 153.435 220.248 158.361 220.248 164.438Z" fill="#51BE99" transform="matrix(1 0 0 1.00151 438.63 145)"/></g></g></g><text fill="#003C30" font-family="Arial,Arial_MSFontService,sans-serif" font-weight="700" font-size="155" transform="translate(76.7753 515)">Contributors</text></g></svg>